<?xml version="1.0" encoding="UTF-8"?>
<svg xmlns="http://www.w3.org/2000/svg" version="1.1" width="1080px" height="1080px"
    style="shape-rendering:geometricPrecision; text-rendering:geometricPrecision; image-rendering:optimizeQuality; fill-rule:evenodd; clip-rule:evenodd"
    xmlns:xlink="http://www.w3.org/1999/xlink">
    <g>
        <path style="opacity:0.544" fill="#2b5292"
            d="M 345.5,489.5 C 346.5,489.5 347.5,489.5 348.5,489.5C 348.5,523.167 348.5,556.833 348.5,590.5C 347.5,590.5 346.5,590.5 345.5,590.5C 345.5,556.833 345.5,523.167 345.5,489.5 Z" />
    </g>
    <g>
        <path style="opacity:0.964" fill="#2a5191"
            d="M 195.5,496.5 C 205.331,495.98 214.998,496.98 224.5,499.5C 226.777,498.522 229.11,497.855 231.5,497.5C 232.277,506.812 232.61,516.146 232.5,525.5C 230.712,525.785 229.045,525.452 227.5,524.5C 223.486,515.99 217.819,508.824 210.5,503C 201.463,499.934 194.963,502.767 191,511.5C 189.528,515.723 188.528,520.057 188,524.5C 187.333,534.833 187.333,545.167 188,555.5C 188.276,564.012 191.443,571.179 197.5,577C 201.032,579.524 204.698,579.857 208.5,578C 209.893,576.829 210.727,575.329 211,573.5C 211.5,565.507 211.666,557.507 211.5,549.5C 208.833,549.5 206.167,549.5 203.5,549.5C 203.5,547.833 203.5,546.167 203.5,544.5C 215.833,544.5 228.167,544.5 240.5,544.5C 241.167,548.5 239.5,550.167 235.5,549.5C 235.5,560.5 235.5,571.5 235.5,582.5C 232.138,582.93 229.305,581.93 227,579.5C 213.443,584.805 199.61,585.639 185.5,582C 171.059,576.987 162.892,566.82 161,551.5C 158.613,535.755 161.947,521.422 171,508.5C 177.996,501.918 186.163,497.918 195.5,496.5 Z" />
    </g>
    <g>
        <path style="opacity:0.959" fill="#2a5191"
            d="M 243.5,497.5 C 259.837,497.333 276.17,497.5 292.5,498C 313.524,497.276 322.024,507.109 318,527.5C 315.414,533.088 311.247,536.921 305.5,539C 310,540.833 313.167,544 315,548.5C 316.018,556.803 316.685,565.136 317,573.5C 318,574.833 319,574.833 320,573.5C 321.549,570.688 322.382,567.688 322.5,564.5C 324.167,564.5 325.833,564.5 327.5,564.5C 327.278,570.452 325.611,575.952 322.5,581C 314.808,584.891 306.808,585.557 298.5,583C 293.664,581.181 290.831,577.681 290,572.5C 289.765,563.463 289.098,554.463 288,545.5C 285.78,541.308 282.28,539.641 277.5,540.5C 277.5,553.167 277.5,565.833 277.5,578.5C 279.833,578.5 282.167,578.5 284.5,578.5C 284.5,579.833 284.5,581.167 284.5,582.5C 270.833,582.5 257.167,582.5 243.5,582.5C 243.5,581.167 243.5,579.833 243.5,578.5C 246.167,578.5 248.833,578.5 251.5,578.5C 251.5,553.167 251.5,527.833 251.5,502.5C 248.833,502.5 246.167,502.5 243.5,502.5C 243.5,500.833 243.5,499.167 243.5,497.5 Z M 277.5,502.5 C 288.441,501.843 293.108,507.009 291.5,518C 293.507,529.472 288.841,535.305 277.5,535.5C 277.5,524.5 277.5,513.5 277.5,502.5 Z" />
    </g>
    <g>
        <path style="opacity:0.897" fill="#2a5192"
            d="M 720.5,501.5 C 724.682,501.67 728.682,501.67 732.5,501.5C 733.833,504.5 733.833,507.5 732.5,510.5C 730.937,509.055 729.604,507.389 728.5,505.5C 726.833,504.167 725.167,504.167 723.5,505.5C 722.214,510.811 722.214,516.144 723.5,521.5C 724.72,522.711 725.887,522.711 727,521.5C 727.312,518.691 726.812,516.024 725.5,513.5C 728.833,513.5 732.167,513.5 735.5,513.5C 734.756,517.119 734.423,520.785 734.5,524.5C 729.108,525.79 723.774,525.623 718.5,524C 712.914,518.56 712.08,512.394 716,505.5C 717.667,504.267 719.167,502.933 720.5,501.5 Z" />
    </g>
    <g>
        <path style="opacity:0.918" fill="#2a5191"
            d="M 382.5,501.5 C 386.682,501.67 390.682,501.67 394.5,501.5C 395.833,504.5 395.833,507.5 394.5,510.5C 392.937,509.055 391.604,507.389 390.5,505.5C 388.833,504.167 387.167,504.167 385.5,505.5C 384.214,510.811 384.214,516.144 385.5,521.5C 386.72,522.711 387.887,522.711 389,521.5C 389.312,518.691 388.812,516.024 387.5,513.5C 390.833,513.5 394.167,513.5 397.5,513.5C 396.756,517.119 396.423,520.785 396.5,524.5C 390.706,526.08 385.04,525.746 379.5,523.5C 373.593,515.184 374.593,507.851 382.5,501.5 Z" />
    </g>
    <g>
        <path style="opacity:0.941" fill="#2a5091"
            d="M 431.5,501.5 C 436.844,501.334 442.177,501.501 447.5,502C 450.326,502.961 451.993,504.961 452.5,508C 450.257,511.779 450.09,515.613 452,519.5C 453.131,518.396 453.965,518.729 454.5,520.5C 452.275,525.791 448.775,526.791 444,523.5C 439.882,524.798 435.715,524.798 431.5,523.5C 432.744,520.362 433.411,517.028 433.5,513.5C 433.266,509.369 432.6,505.369 431.5,501.5 Z M 441.5,504.5 C 444.99,506.523 445.157,508.857 442,511.5C 441.503,509.19 441.337,506.857 441.5,504.5 Z M 441.5,514.5 C 443.026,515.492 443.693,516.992 443.5,519C 443.167,520.167 442.833,521.333 442.5,522.5C 441.52,519.914 441.187,517.247 441.5,514.5 Z" />
    </g>
    <g>
        <path style="opacity:0.895" fill="#2a5090"
            d="M 494.5,501.5 C 507.402,499.928 512.569,505.594 510,518.5C 507.136,524.689 502.303,526.856 495.5,525C 492.551,524.61 490.384,523.11 489,520.5C 488.333,516.167 488.333,511.833 489,507.5C 490.36,504.977 492.193,502.977 494.5,501.5 Z M 497.5,504.5 C 498.822,504.33 499.989,504.663 501,505.5C 503,510.833 503,516.167 501,521.5C 499.989,522.337 498.822,522.67 497.5,522.5C 496.216,516.487 496.216,510.487 497.5,504.5 Z" />
    </g>
    <g>
        <path style="opacity:0.877" fill="#2b5191"
            d="M 539.5,501.5 C 547.167,502.833 554.833,502.833 562.5,501.5C 561.163,505.354 561.663,509.021 564,512.5C 565.03,510.412 565.863,508.245 566.5,506C 565.293,504.7 564.626,503.2 564.5,501.5C 567.167,501.5 569.833,501.5 572.5,501.5C 572.5,502.5 572.5,503.5 572.5,504.5C 571.5,504.5 570.5,504.5 569.5,504.5C 567.96,511.536 566.293,518.536 564.5,525.5C 562.712,525.785 561.045,525.452 559.5,524.5C 556.632,512.599 554.632,512.933 553.5,525.5C 551.533,525.739 549.699,525.406 548,524.5C 545.618,516.618 542.785,508.952 539.5,501.5 Z M 550.5,503.5 C 554.479,505.951 555.312,509.285 553,513.5C 550.994,510.464 550.16,507.131 550.5,503.5 Z" />
    </g>
    <g>
        <path style="opacity:0.908" fill="#2a5191"
            d="M 606.5,501.5 C 610.167,501.5 613.833,501.5 617.5,501.5C 616.4,505.369 615.734,509.369 615.5,513.5C 615.589,517.028 616.256,520.362 617.5,523.5C 613.833,524.833 610.167,524.833 606.5,523.5C 607.744,520.362 608.411,517.028 608.5,513.5C 608.266,509.369 607.6,505.369 606.5,501.5 Z" />
    </g>
    <g>
        <path style="opacity:0.933" fill="#2a5193"
            d="M 657.5,501.5 C 661.167,501.5 664.833,501.5 668.5,501.5C 669.774,505.381 671.607,509.048 674,512.5C 674.167,511.167 674.333,509.833 674.5,508.5C 673.979,506.076 673.312,503.743 672.5,501.5C 674.5,501.5 676.5,501.5 678.5,501.5C 677.602,509.124 677.269,516.791 677.5,524.5C 675.143,524.663 672.81,524.497 670.5,524C 668.141,519.451 665.641,514.951 663,510.5C 662.228,514.89 662.394,519.223 663.5,523.5C 661.5,524.833 659.5,524.833 657.5,523.5C 658.744,520.362 659.411,517.028 659.5,513.5C 659.266,509.369 658.6,505.369 657.5,501.5 Z" />
    </g>
    <g>
        <path style="opacity:0.898" fill="#2a5090"
            d="M 833.5,549.5 C 837.833,549.5 842.167,549.5 846.5,549.5C 846.813,552.247 846.48,554.914 845.5,557.5C 843.545,555.239 841.378,553.239 839,551.5C 838.228,551.645 837.561,551.978 837,552.5C 834.943,558.419 835.11,564.252 837.5,570C 840.84,570.026 843.173,568.36 844.5,565C 845.448,564.517 846.448,564.351 847.5,564.5C 847.768,567.119 847.435,569.619 846.5,572C 831.854,575.781 825.687,570.281 828,555.5C 829.36,552.977 831.193,550.977 833.5,549.5 Z" />
    </g>
    <g>
        <path style="opacity:0.954" fill="#2b5192"
            d="M 375.5,549.5 C 380.844,549.334 386.177,549.501 391.5,550C 396.989,552.681 397.656,556.347 393.5,561C 394.186,564.041 395.853,566.375 398.5,568C 397.87,569.892 396.87,571.559 395.5,573C 389.114,572.323 382.447,571.823 375.5,571.5C 376.75,568.193 377.416,564.693 377.5,561C 377.347,556.987 376.68,553.153 375.5,549.5 Z M 384.5,551.5 C 386.38,552.078 387.38,553.412 387.5,555.5C 387.658,557.319 386.991,558.652 385.5,559.5C 384.52,556.914 384.187,554.247 384.5,551.5 Z M 384.5,562.5 C 385.496,562.414 386.329,562.748 387,563.5C 387.497,565.81 387.663,568.143 387.5,570.5C 386.5,570.5 385.5,570.5 384.5,570.5C 384.5,567.833 384.5,565.167 384.5,562.5 Z" />
    </g>
    <g>
        <path style="opacity:0.976" fill="#2a5191"
            d="M 447.5,555.5 C 447.823,559.226 447.489,562.893 446.5,566.5C 445.5,565.167 444.5,563.833 443.5,562.5C 441.615,572.287 443.615,573.12 449.5,565C 450.448,564.517 451.448,564.351 452.5,564.5C 452.708,566.92 452.374,569.253 451.5,571.5C 445.5,572.833 439.5,572.833 433.5,571.5C 434.75,568.193 435.416,564.693 435.5,561C 435.416,557.307 434.75,553.807 433.5,550.5C 439.128,549.505 444.794,549.171 450.5,549.5C 450.318,551.591 450.652,553.591 451.5,555.5C 450.135,558.125 448.802,558.125 447.5,555.5 Z M 447.5,555.5 C 445.743,556.292 444.409,557.625 443.5,559.5C 442.348,556.894 442.182,554.227 443,551.5C 445.118,552.283 446.618,553.616 447.5,555.5 Z" />
    </g>
    <g>
        <path style="opacity:0.92" fill="#2a5192"
            d="M 504.5,557.5 C 509.768,562.337 509.768,567.171 504.5,572C 500.542,573.269 496.542,573.769 492.5,573.5C 491.511,570.562 490.844,567.562 490.5,564.5C 491.552,564.351 492.552,564.517 493.5,565C 494.848,567.513 496.848,569.347 499.5,570.5C 501.208,570.297 502.541,569.464 503.5,568C 499.464,566.209 495.631,564.042 492,561.5C 491.333,558.5 491.333,555.5 492,552.5C 492.308,551.692 492.808,551.025 493.5,550.5C 497.614,549.617 501.614,549.284 505.5,549.5C 505.833,550.833 506.167,552.167 506.5,553.5C 506.415,555.333 505.748,556.666 504.5,557.5 Z M 504.5,557.5 C 502.199,556.94 499.866,556.44 497.5,556C 496,553.833 496.5,552.333 499,551.5C 501.701,552.754 503.534,554.754 504.5,557.5 Z" />
    </g>
    <g>
        <path style="opacity:0.907" fill="#2a5191"
            d="M 549.5,549.5 C 553.226,549.177 556.893,549.511 560.5,550.5C 559.167,557.5 559.167,564.5 560.5,571.5C 556.833,572.833 553.167,572.833 549.5,571.5C 550.325,570.614 551.325,570.281 552.5,570.5C 552.5,564.167 552.5,557.833 552.5,551.5C 550.821,551.715 549.821,551.048 549.5,549.5 Z" />
    </g>
    <g>
        <path style="opacity:0.99" fill="#2b5192"
            d="M 602.5,549.5 C 606.884,549.174 611.217,549.508 615.5,550.5C 614.675,551.386 613.675,551.719 612.5,551.5C 612.17,557.868 612.504,564.202 613.5,570.5C 615.89,569.109 617.557,567.109 618.5,564.5C 619.325,563.614 620.325,563.281 621.5,563.5C 621.5,566.5 621.5,569.5 621.5,572.5C 615.132,572.83 608.798,572.496 602.5,571.5C 603.75,568.193 604.416,564.693 604.5,561C 604.347,556.987 603.68,553.153 602.5,549.5 Z" />
    </g>
    <g>
        <path style="opacity:0.965" fill="#2a5192"
            d="M 662.5,549.5 C 666.226,549.177 669.893,549.511 673.5,550.5C 672.167,557.5 672.167,564.5 673.5,571.5C 669.833,572.833 666.167,572.833 662.5,571.5C 663.75,568.193 664.416,564.693 664.5,561C 664.347,556.987 663.68,553.153 662.5,549.5 Z" />
    </g>
    <g>
        <path style="opacity:0.976" fill="#2b5191"
            d="M 714.5,549.5 C 720.5,549.5 726.5,549.5 732.5,549.5C 732.318,551.591 732.652,553.591 733.5,555.5C 732.711,557.488 731.545,557.821 730,556.5C 729.824,559.882 729.324,563.215 728.5,566.5C 727.52,565.019 726.353,563.685 725,562.5C 723.664,572.257 725.831,573.09 731.5,565C 732.448,564.517 733.448,564.351 734.5,564.5C 734.425,567.206 734.092,569.873 733.5,572.5C 727.132,572.83 720.798,572.496 714.5,571.5C 715.325,570.614 716.325,570.281 717.5,570.5C 717.5,564.167 717.5,557.833 717.5,551.5C 715.821,551.715 714.821,551.048 714.5,549.5 Z M 724.5,551.5 C 726.487,552.164 728.154,553.331 729.5,555C 727.895,556.36 726.395,557.86 725,559.5C 724.503,556.854 724.336,554.187 724.5,551.5 Z" />
    </g>
    <g>
        <path style="opacity:0.888" fill="#2a5192"
            d="M 770.5,549.5 C 773.85,549.335 777.183,549.502 780.5,550C 783.1,553.597 785.266,557.43 787,561.5C 787.979,557.577 787.479,553.91 785.5,550.5C 787.5,549.167 789.5,549.167 791.5,550.5C 789.584,557.624 788.917,564.957 789.5,572.5C 787.396,572.799 785.396,572.466 783.5,571.5C 780.653,566.468 777.819,561.468 775,556.5C 773.964,561.73 774.464,566.73 776.5,571.5C 774.5,572.833 772.5,572.833 770.5,571.5C 771.75,568.193 772.416,564.693 772.5,561C 772.347,556.987 771.68,553.153 770.5,549.5 Z" />
    </g>
    <g>
        <path style="opacity:0.902" fill="#2a5191"
            d="M 883.5,549.5 C 889.5,549.5 895.5,549.5 901.5,549.5C 901.318,551.591 901.652,553.591 902.5,555.5C 901.711,557.488 900.545,557.821 899,556.5C 898.824,559.882 898.324,563.215 897.5,566.5C 896.52,565.019 895.353,563.685 894,562.5C 892.664,572.257 894.831,573.09 900.5,565C 901.448,564.517 902.448,564.351 903.5,564.5C 903.425,567.206 903.092,569.873 902.5,572.5C 896.132,572.83 889.798,572.496 883.5,571.5C 884.325,570.614 885.325,570.281 886.5,570.5C 886.5,564.167 886.5,557.833 886.5,551.5C 884.821,551.715 883.821,551.048 883.5,549.5 Z M 893.5,551.5 C 895.487,552.164 897.154,553.331 898.5,555C 896.895,556.36 895.395,557.86 894,559.5C 893.503,556.854 893.336,554.187 893.5,551.5 Z" />
    </g>
</svg>