<?xml version="1.0" encoding="UTF-8"?>
<svg xmlns="http://www.w3.org/2000/svg" version="1.1" width="150px" height="6px"
    style="shape-rendering:geometricPrecision; text-rendering:geometricPrecision; image-rendering:optimizeQuality; fill-rule:evenodd; clip-rule:evenodd"
    xmlns:xlink="http://www.w3.org/1999/xlink">
    <metadata id="metadata8">
        <rdfRDF>
            <ccWork>
                <dcFormat>image/svg+xml</dcFormat>
                <dcType />
            </ccWork>
        </rdfRDF>
    </metadata>
    <defs id="defs6" />
    <sodipodiNamedview pagecolor="#ffffff" bordercolor="#666666" borderopacity="1"
        objecttolerance="10" gridtolerance="10" guidetolerance="10"
        id="namedview4" />
    <g id="g10">
        <g id="g12" transform="scale(0.05)">
            <path style="opacity:1" fill="currentColor"
                d="M 339.5,247.5 C 430.757,246.685 518.091,264.685 601.5,301.5C 601.833,304.667 602.167,307.833 602.5,311C 599.816,364.837 597.15,418.67 594.5,472.5C 572.833,472.5 551.167,472.5 529.5,472.5C 523.707,434.742 517.374,397.075 510.5,359.5C 454.189,339.504 396.189,330.67 336.5,333C 242.691,342.153 178.857,390.653 145,478.5C 134.068,509.329 126.901,540.996 123.5,573.5C 85.1725,574.5 46.8391,574.833 8.5,574.5C 12.6359,504.596 33.4693,440.263 71,381.5C 121.765,310.497 190.598,267.997 277.5,254C 298.205,250.722 318.872,248.556 339.5,247.5 Z" />
            <path style="opacity:1" fill="currentColor"
                d="M 925.5,258.5 C 983.168,258.333 1040.83,258.5 1098.5,259C 1144.44,259.984 1187.77,270.984 1228.5,292C 1281.54,323.845 1309.7,371.012 1313,433.5C 1317.81,483.941 1306.47,530.274 1279,572.5C 1278.5,573 1278,573.5 1277.5,574C 1233.5,574.667 1189.5,574.667 1145.5,574C 1185.18,546.922 1204.51,509.088 1203.5,460.5C 1202.43,392.595 1168.43,352.762 1101.5,341C 1093.22,339.59 1084.88,338.59 1076.5,338C 1034.83,337.5 993.168,337.333 951.5,337.5C 951.5,416.5 951.5,495.5 951.5,574.5C 915.5,574.5 879.5,574.5 843.5,574.5C 843.833,495.497 843.5,416.497 842.5,337.5C 814.833,331.5 787.167,325.5 759.5,319.5C 758.5,300.845 758.167,282.179 758.5,263.5C 814.335,262.128 870.001,260.461 925.5,258.5 Z" />
            <path style="opacity:1" fill="currentColor"
                d="M 1612.5,258.5 C 1667.83,258.333 1723.17,258.5 1778.5,259C 1821.23,260.348 1861.23,271.348 1898.5,292C 1948.4,323.287 1978.57,368.12 1989,426.5C 1997.84,476.762 1993.34,525.762 1975.5,573.5C 1935.84,574.667 1896.17,574.833 1856.5,574C 1875.61,545.314 1884.61,513.647 1883.5,479C 1885.12,442.952 1874.96,410.786 1853,382.5C 1834.94,362.548 1812.77,349.382 1786.5,343C 1775.61,340.588 1764.61,338.921 1753.5,338C 1715.83,337.5 1678.17,337.333 1640.5,337.5C 1640.67,416.167 1640.5,494.834 1640,573.5C 1604.24,574.496 1568.41,574.83 1532.5,574.5C 1532.5,495.167 1532.5,415.833 1532.5,336.5C 1504.45,331.09 1476.45,325.423 1448.5,319.5C 1447.5,300.845 1447.17,282.179 1447.5,263.5C 1502.67,262.128 1557.67,260.461 1612.5,258.5 Z" />
            <path style="opacity:1" fill="currentColor"
                d="M 28.5,584.5 C 40.2202,583.787 51.5535,585.454 62.5,589.5C 61.7403,595.804 61.407,602.137 61.5,608.5C 58.8333,608.5 56.1667,608.5 53.5,608.5C 53.1667,604.5 52.8333,600.5 52.5,596.5C 23.5484,589.939 10.715,601.606 14,631.5C 19.0654,650.27 30.8987,656.27 49.5,649.5C 50.4959,643.537 50.8293,637.537 50.5,631.5C 47.7938,631.425 45.1272,631.092 42.5,630.5C 42.5,628.167 42.5,625.833 42.5,623.5C 51.8333,623.5 61.1667,623.5 70.5,623.5C 70.5,625.833 70.5,628.167 70.5,630.5C 67.4824,630.704 64.4824,631.037 61.5,631.5C 61.5,639.833 61.5,648.167 61.5,656.5C 55.2971,658.467 48.9638,659.967 42.5,661C 15.4912,663.161 1.49116,650.661 0.5,623.5C -0.0130718,603.065 9.32026,590.065 28.5,584.5 Z" />
            <path style="opacity:1" fill="currentColor"
                d="M 173.5,584.5 C 199.48,583.145 213.147,595.479 214.5,621.5C 213.76,649.08 199.76,662.246 172.5,661C 158.241,657.74 149.741,648.907 147,634.5C 144.869,621.434 146.869,609.101 153,597.5C 158.404,590.725 165.238,586.392 173.5,584.5 Z M 178.5,593.5 C 189.951,593.787 197.118,599.454 200,610.5C 202.513,621.504 201.513,632.17 197,642.5C 187.288,654.112 176.621,655.112 165,645.5C 156.335,630.512 156.335,615.512 165,600.5C 168.975,596.931 173.475,594.597 178.5,593.5 Z" />
            <path style="opacity:1" fill="currentColor"
                d="M 474.5,584.5 C 485.552,583.787 496.218,585.453 506.5,589.5C 507.447,595.816 507.447,602.15 506.5,608.5C 504.076,608.808 501.743,608.474 499.5,607.5C 498.819,603.744 497.819,600.078 496.5,596.5C 469.608,589.875 457.108,600.542 459,628.5C 460.262,642.76 467.929,650.76 482,652.5C 486.852,651.704 491.685,650.704 496.5,649.5C 496.5,643.5 496.5,637.5 496.5,631.5C 493.455,631.492 490.455,631.159 487.5,630.5C 487.5,628.167 487.5,625.833 487.5,623.5C 496.833,623.5 506.167,623.5 515.5,623.5C 515.5,625.833 515.5,628.167 515.5,630.5C 512.833,630.833 510.167,631.167 507.5,631.5C 507.666,639.507 507.5,647.507 507,655.5C 492.027,662.653 476.86,663.153 461.5,657C 453.538,651.59 448.705,644.09 447,634.5C 446.124,625.77 446.458,617.104 448,608.5C 452.306,595.354 461.14,587.354 474.5,584.5 Z" />
            <path style="opacity:1" fill="currentColor"
                d="M 699.5,584.5 C 709.797,583.884 719.797,585.217 729.5,588.5C 728.89,594.815 728.557,601.149 728.5,607.5C 725.833,607.5 723.167,607.5 720.5,607.5C 720.67,603.355 720.003,599.355 718.5,595.5C 709.739,592.158 701.573,593.158 694,598.5C 691.496,603.646 692.329,608.146 696.5,612C 705.5,615.667 714.5,619.333 723.5,623C 732.247,631.259 733.747,640.759 728,651.5C 721.236,658.537 712.903,661.87 703,661.5C 695.988,661.359 689.155,660.193 682.5,658C 680.562,651.452 679.895,644.618 680.5,637.5C 683.167,637.5 685.833,637.5 688.5,637.5C 688.485,641.56 688.985,645.56 690,649.5C 698.585,653.639 707.085,653.473 715.5,649C 720.347,644.076 720.68,638.909 716.5,633.5C 707.821,628.993 698.821,625.16 689.5,622C 683.516,618.204 680.516,612.704 680.5,605.5C 681.628,593.709 687.961,586.709 699.5,584.5 Z" />
            <path style="opacity:1" fill="currentColor"
                d="M 1049.5,584.5 C 1059.94,583.588 1069.94,585.255 1079.5,589.5C 1080.6,595.828 1080.6,602.161 1079.5,608.5C 1077.17,608.5 1074.83,608.5 1072.5,608.5C 1072,605.513 1071.5,602.513 1071,599.5C 1070.68,597.939 1069.85,596.772 1068.5,596C 1049.93,590.568 1039.1,597.401 1036,616.5C 1034.78,626.527 1036.78,635.861 1042,644.5C 1050.57,652.409 1060.07,653.576 1070.5,648C 1072.67,646.5 1074.83,645 1077,643.5C 1078.7,645.699 1080.2,648.032 1081.5,650.5C 1069.89,661.057 1056.55,663.89 1041.5,659C 1031.63,653.777 1025.8,645.611 1024,634.5C 1020.71,618.498 1024.21,604.331 1034.5,592C 1039.05,588.394 1044.05,585.894 1049.5,584.5 Z" />
            <path style="opacity:1" fill="currentColor"
                d="M 1562.5,584.5 C 1572.94,583.588 1582.94,585.255 1592.5,589.5C 1593.35,595.81 1593.35,602.144 1592.5,608.5C 1590.08,608.808 1587.74,608.474 1585.5,607.5C 1584.82,603.744 1583.82,600.078 1582.5,596.5C 1560.36,590.112 1549.02,598.612 1548.5,622C 1548.42,630.197 1550.59,637.697 1555,644.5C 1561.61,651.382 1569.45,653.215 1578.5,650C 1582.5,648.337 1586.16,646.171 1589.5,643.5C 1591.52,645.531 1593.19,647.865 1594.5,650.5C 1581.31,662.301 1566.65,664.468 1550.5,657C 1537.26,644.563 1532.76,629.396 1537,611.5C 1539.94,597.065 1548.44,588.065 1562.5,584.5 Z" />
            <path style="opacity:1" fill="currentColor"
                d="M 78.5,585.5 C 91.1711,585.333 103.838,585.5 116.5,586C 132.878,590.254 138.045,600.42 132,616.5C 128.88,621.143 124.713,624.476 119.5,626.5C 125.758,634.004 130.758,642.338 134.5,651.5C 136.608,652.944 138.941,653.61 141.5,653.5C 141.5,655.833 141.5,658.167 141.5,660.5C 136.125,660.828 130.792,660.495 125.5,659.5C 121.606,650.711 117.439,642.045 113,633.5C 108.693,629.342 103.526,627.676 97.5,628.5C 97.3336,636.174 97.5003,643.841 98,651.5C 101.049,652.61 104.216,653.277 107.5,653.5C 107.5,655.833 107.5,658.167 107.5,660.5C 97.5,660.5 87.5,660.5 77.5,660.5C 77.5,658.167 77.5,655.833 77.5,653.5C 80.1667,653.167 82.8333,652.833 85.5,652.5C 85.8329,633.155 85.4996,613.822 84.5,594.5C 78.301,594.203 76.301,591.203 78.5,585.5 Z M 97.5,594.5 C 103.593,594.139 109.593,594.639 115.5,596C 123.944,602.151 124.611,609.151 117.5,617C 111.129,619.774 104.462,620.941 97.5,620.5C 97.5,611.833 97.5,603.167 97.5,594.5 Z" />
            <path style="opacity:1" fill="currentColor"
                d="M 216.5,585.5 C 225.5,585.5 234.5,585.5 243.5,585.5C 243.5,587.833 243.5,590.167 243.5,592.5C 240.391,592.655 237.391,593.322 234.5,594.5C 238.367,610.637 242.534,626.637 247,642.5C 252.659,623.526 258.159,604.526 263.5,585.5C 267.673,584.956 271.506,585.623 275,587.5C 280.135,605.903 285.468,624.236 291,642.5C 295.643,626.26 299.81,609.927 303.5,593.5C 301.08,593.708 298.747,593.374 296.5,592.5C 295.062,590.002 295.396,587.836 297.5,586C 305.827,585.5 314.16,585.334 322.5,585.5C 322.5,587.833 322.5,590.167 322.5,592.5C 319.188,592.363 316.354,593.363 314,595.5C 308.06,617.096 301.894,638.596 295.5,660C 291.577,660.793 287.744,660.626 284,659.5C 279.051,641.327 273.718,623.327 268,605.5C 262.499,623.506 256.999,641.506 251.5,659.5C 247.555,660.491 243.555,660.824 239.5,660.5C 234.162,638.816 228.662,617.15 223,595.5C 220.776,593.946 218.276,592.946 215.5,592.5C 214.167,589.862 214.5,587.529 216.5,585.5 Z" />
            <path style="opacity:1" fill="currentColor"
                d="M 326.5,585.5 C 335.5,585.5 344.5,585.5 353.5,585.5C 353.5,587.833 353.5,590.167 353.5,592.5C 350.687,592.548 348.021,593.215 345.5,594.5C 344.334,613.491 344.167,632.491 345,651.5C 347.687,652.713 350.52,653.38 353.5,653.5C 353.5,655.833 353.5,658.167 353.5,660.5C 343.833,660.5 334.167,660.5 324.5,660.5C 324.5,658.167 324.5,655.833 324.5,653.5C 327.482,653.037 330.482,652.704 333.5,652.5C 333.833,633.155 333.5,613.822 332.5,594.5C 330.167,593.833 327.833,593.167 325.5,592.5C 324.167,589.862 324.5,587.529 326.5,585.5 Z" />
            <path style="opacity:1" fill="currentColor"
                d="M 363.5,585.5 C 370.508,585.334 377.508,585.5 384.5,586C 396.126,604.75 407.626,623.583 419,642.5C 419.833,626.49 419.666,610.49 418.5,594.5C 416.167,593.833 413.833,593.167 411.5,592.5C 410.062,590.002 410.396,587.836 412.5,586C 420.827,585.5 429.16,585.334 437.5,585.5C 437.5,587.833 437.5,590.167 437.5,592.5C 434.882,592.779 432.382,593.446 430,594.5C 429.5,616.497 429.333,638.497 429.5,660.5C 424.786,660.827 420.12,660.493 415.5,659.5C 404,640.5 392.5,621.5 381,602.5C 380.333,618.833 380.333,635.167 381,651.5C 383.687,652.713 386.52,653.38 389.5,653.5C 389.5,655.833 389.5,658.167 389.5,660.5C 380.5,660.5 371.5,660.5 362.5,660.5C 362.5,658.167 362.5,655.833 362.5,653.5C 365.167,653.167 367.833,652.833 370.5,652.5C 370.667,633.164 370.5,613.83 370,594.5C 363.425,594.564 361.258,591.564 363.5,585.5 Z" />
            <path style="opacity:1" fill="currentColor"
                d="M 544.5,585.5 C 557.171,585.333 569.838,585.5 582.5,586C 597.482,589.341 602.982,598.507 599,613.5C 596.195,620.002 591.362,624.336 584.5,626.5C 586.483,627.982 588.316,629.649 590,631.5C 593.333,638.167 596.667,644.833 600,651.5C 602.301,652.867 604.801,653.534 607.5,653.5C 607.5,655.833 607.5,658.167 607.5,660.5C 602.156,660.666 596.823,660.499 591.5,660C 587.128,650.756 582.628,641.59 578,632.5C 573.785,629.112 568.951,627.779 563.5,628.5C 563.5,636.5 563.5,644.5 563.5,652.5C 566.833,652.833 570.167,653.167 573.5,653.5C 573.5,655.833 573.5,658.167 573.5,660.5C 563.167,660.5 552.833,660.5 542.5,660.5C 542.5,658.167 542.5,655.833 542.5,653.5C 545.482,653.037 548.482,652.704 551.5,652.5C 551.833,633.155 551.5,613.822 550.5,594.5C 548.167,593.833 545.833,593.167 543.5,592.5C 542.167,589.862 542.5,587.529 544.5,585.5 Z M 563.5,594.5 C 569.593,594.139 575.593,594.639 581.5,596C 585.953,598.071 587.953,601.571 587.5,606.5C 587.722,611.558 585.722,615.391 581.5,618C 575.659,619.951 569.659,620.784 563.5,620.5C 563.5,611.833 563.5,603.167 563.5,594.5 Z" />
            <path style="opacity:1" fill="currentColor"
                d="M 614.5,585.5 C 631.833,585.5 649.167,585.5 666.5,585.5C 666.5,591.5 666.5,597.5 666.5,603.5C 663.833,603.5 661.167,603.5 658.5,603.5C 658.296,600.482 657.963,597.482 657.5,594.5C 649.5,594.5 641.5,594.5 633.5,594.5C 633.5,602.167 633.5,609.833 633.5,617.5C 641.833,617.5 650.167,617.5 658.5,617.5C 658.5,620.5 658.5,623.5 658.5,626.5C 650.167,626.5 641.833,626.5 633.5,626.5C 633.5,634.833 633.5,643.167 633.5,651.5C 641.833,651.5 650.167,651.5 658.5,651.5C 658.998,648.513 659.498,645.513 660,642.5C 662.381,641.565 664.881,641.232 667.5,641.5C 667.5,647.833 667.5,654.167 667.5,660.5C 649.167,660.5 630.833,660.5 612.5,660.5C 612.5,658.167 612.5,655.833 612.5,653.5C 615.48,653.38 618.313,652.713 621,651.5C 621.833,632.491 621.666,613.491 620.5,594.5C 618.167,593.833 615.833,593.167 613.5,592.5C 612.167,589.862 612.5,587.529 614.5,585.5 Z" />
            <path style="opacity:1" fill="currentColor"
                d="M 742.5,585.5 C 751.5,585.5 760.5,585.5 769.5,585.5C 769.5,587.833 769.5,590.167 769.5,592.5C 766.52,592.62 763.687,593.287 761,594.5C 760.5,613.83 760.333,633.164 760.5,652.5C 763.518,652.704 766.518,653.037 769.5,653.5C 769.5,655.833 769.5,658.167 769.5,660.5C 759.833,660.5 750.167,660.5 740.5,660.5C 740.5,658.167 740.5,655.833 740.5,653.5C 743.167,653.167 745.833,652.833 748.5,652.5C 748.833,633.155 748.5,613.822 747.5,594.5C 745.5,593.833 743.5,593.167 741.5,592.5C 740.167,589.862 740.5,587.529 742.5,585.5 Z" />
            <path style="opacity:1" fill="currentColor"
                d="M 779.5,585.5 C 788.833,585.5 798.167,585.5 807.5,585.5C 807.5,587.833 807.5,590.167 807.5,592.5C 804.52,592.62 801.687,593.287 799,594.5C 798.5,613.497 798.333,632.497 798.5,651.5C 805.833,651.5 813.167,651.5 820.5,651.5C 820.981,647.798 821.648,644.131 822.5,640.5C 824.743,639.526 827.076,639.192 829.5,639.5C 829.5,646.5 829.5,653.5 829.5,660.5C 812.167,660.5 794.833,660.5 777.5,660.5C 777.5,658.167 777.5,655.833 777.5,653.5C 780.482,653.037 783.482,652.704 786.5,652.5C 786.833,633.155 786.5,613.822 785.5,594.5C 783.167,593.833 780.833,593.167 778.5,592.5C 777.167,589.862 777.5,587.529 779.5,585.5 Z" />
            <path style="opacity:1" fill="currentColor"
                d="M 838.5,585.5 C 847.5,585.5 856.5,585.5 865.5,585.5C 865.5,587.833 865.5,590.167 865.5,592.5C 862.52,592.62 859.687,593.287 857,594.5C 856.333,613.5 856.333,632.5 857,651.5C 859.687,652.713 862.52,653.38 865.5,653.5C 865.5,655.833 865.5,658.167 865.5,660.5C 855.833,660.5 846.167,660.5 836.5,660.5C 836.5,658.167 836.5,655.833 836.5,653.5C 839.167,653.167 841.833,652.833 844.5,652.5C 844.667,633.164 844.5,613.83 844,594.5C 841.876,593.773 839.709,593.106 837.5,592.5C 836.167,589.862 836.5,587.529 838.5,585.5 Z" />
            <path style="opacity:1" fill="currentColor"
                d="M 875.5,585.5 C 892.833,585.5 910.167,585.5 927.5,585.5C 927.5,591.5 927.5,597.5 927.5,603.5C 924.833,603.5 922.167,603.5 919.5,603.5C 919.492,600.455 919.159,597.455 918.5,594.5C 910.5,594.5 902.5,594.5 894.5,594.5C 894.5,602.167 894.5,609.833 894.5,617.5C 902.833,617.5 911.167,617.5 919.5,617.5C 919.5,620.5 919.5,623.5 919.5,626.5C 911.167,626.5 902.833,626.5 894.5,626.5C 894.5,634.833 894.5,643.167 894.5,651.5C 902.86,651.831 911.193,651.498 919.5,650.5C 920.167,647.833 920.833,645.167 921.5,642.5C 923.743,641.526 926.076,641.192 928.5,641.5C 928.5,647.833 928.5,654.167 928.5,660.5C 910.167,660.5 891.833,660.5 873.5,660.5C 873.5,658.167 873.5,655.833 873.5,653.5C 876.482,653.037 879.482,652.704 882.5,652.5C 882.833,633.155 882.5,613.822 881.5,594.5C 879.167,593.833 876.833,593.167 874.5,592.5C 873.167,589.862 873.5,587.529 875.5,585.5 Z" />
            <path style="opacity:1" fill="currentColor"
                d="M 940.5,585.5 C 947.508,585.334 954.508,585.5 961.5,586C 973.126,604.75 984.626,623.583 996,642.5C 996.833,626.49 996.666,610.49 995.5,594.5C 993.167,593.833 990.833,593.167 988.5,592.5C 987.062,590.002 987.396,587.836 989.5,586C 997.827,585.5 1006.16,585.334 1014.5,585.5C 1014.5,587.833 1014.5,590.167 1014.5,592.5C 1011.88,592.779 1009.38,593.446 1007,594.5C 1006.5,616.497 1006.33,638.497 1006.5,660.5C 1001.79,660.827 997.12,660.493 992.5,659.5C 981,640.5 969.5,621.5 958,602.5C 957.333,618.833 957.333,635.167 958,651.5C 960.687,652.713 963.52,653.38 966.5,653.5C 966.5,655.833 966.5,658.167 966.5,660.5C 957.5,660.5 948.5,660.5 939.5,660.5C 939.5,658.167 939.5,655.833 939.5,653.5C 942.167,653.167 944.833,652.833 947.5,652.5C 947.667,633.164 947.5,613.83 947,594.5C 940.425,594.564 938.258,591.564 940.5,585.5 Z" />
            <path style="opacity:1" fill="currentColor"
                d="M 1091.5,585.5 C 1108.83,585.5 1126.17,585.5 1143.5,585.5C 1143.5,591.5 1143.5,597.5 1143.5,603.5C 1140.83,603.5 1138.17,603.5 1135.5,603.5C 1135.49,600.455 1135.16,597.455 1134.5,594.5C 1126.5,594.5 1118.5,594.5 1110.5,594.5C 1110.5,602.167 1110.5,609.833 1110.5,617.5C 1118.83,617.5 1127.17,617.5 1135.5,617.5C 1135.5,620.5 1135.5,623.5 1135.5,626.5C 1127.17,626.5 1118.83,626.5 1110.5,626.5C 1110.5,634.833 1110.5,643.167 1110.5,651.5C 1118.86,651.831 1127.19,651.498 1135.5,650.5C 1136.17,647.833 1136.83,645.167 1137.5,642.5C 1139.74,641.526 1142.08,641.192 1144.5,641.5C 1144.5,647.833 1144.5,654.167 1144.5,660.5C 1126.17,660.5 1107.83,660.5 1089.5,660.5C 1089.5,658.167 1089.5,655.833 1089.5,653.5C 1092.48,653.037 1095.48,652.704 1098.5,652.5C 1098.83,633.155 1098.5,613.822 1097.5,594.5C 1095.17,593.833 1092.83,593.167 1090.5,592.5C 1089.17,589.862 1089.5,587.529 1091.5,585.5 Z" />
            <path style="opacity:1" fill="currentColor"
                d="M 1177.5,585.5 C 1189.5,585.333 1201.5,585.5 1213.5,586C 1228.89,589.915 1234.72,599.748 1231,615.5C 1227.99,624.505 1221.83,630.005 1212.5,632C 1207.18,632.499 1201.84,632.666 1196.5,632.5C 1196.5,639.167 1196.5,645.833 1196.5,652.5C 1200.15,652.942 1203.82,653.276 1207.5,653.5C 1207.5,655.833 1207.5,658.167 1207.5,660.5C 1196.83,660.5 1186.17,660.5 1175.5,660.5C 1175.5,658.167 1175.5,655.833 1175.5,653.5C 1178.48,653.38 1181.31,652.713 1184,651.5C 1184.83,632.491 1184.67,613.491 1183.5,594.5C 1181.17,593.833 1178.83,593.167 1176.5,592.5C 1175.17,589.862 1175.5,587.529 1177.5,585.5 Z M 1196.5,594.5 C 1214.57,591.731 1221.74,599.065 1218,616.5C 1212.26,622.742 1205.09,625.409 1196.5,624.5C 1196.5,614.5 1196.5,604.5 1196.5,594.5 Z" />
            <path style="opacity:1" fill="currentColor"
                d="M 1238.5,585.5 C 1255.83,585.5 1273.17,585.5 1290.5,585.5C 1290.5,591.5 1290.5,597.5 1290.5,603.5C 1287.83,603.5 1285.17,603.5 1282.5,603.5C 1282.3,600.482 1281.96,597.482 1281.5,594.5C 1273.5,594.5 1265.5,594.5 1257.5,594.5C 1257.5,602.167 1257.5,609.833 1257.5,617.5C 1265.83,617.5 1274.17,617.5 1282.5,617.5C 1282.5,620.5 1282.5,623.5 1282.5,626.5C 1274.17,626.5 1265.83,626.5 1257.5,626.5C 1257.5,634.833 1257.5,643.167 1257.5,651.5C 1265.83,651.5 1274.17,651.5 1282.5,651.5C 1283,648.513 1283.5,645.513 1284,642.5C 1286.38,641.565 1288.88,641.232 1291.5,641.5C 1291.5,647.833 1291.5,654.167 1291.5,660.5C 1273.17,660.5 1254.83,660.5 1236.5,660.5C 1236.5,658.167 1236.5,655.833 1236.5,653.5C 1239.48,653.38 1242.31,652.713 1245,651.5C 1245.83,632.491 1245.67,613.491 1244.5,594.5C 1242.17,593.833 1239.83,593.167 1237.5,592.5C 1236.17,589.862 1236.5,587.529 1238.5,585.5 Z" />
            <path style="opacity:1" fill="currentColor"
                d="M 1303.5,585.5 C 1316.17,585.333 1328.84,585.5 1341.5,586C 1356.58,589.307 1362.08,598.474 1358,613.5C 1355.66,620.508 1350.82,624.674 1343.5,626C 1350.22,633.568 1355.55,642.068 1359.5,651.5C 1361.61,652.944 1363.94,653.61 1366.5,653.5C 1366.5,655.833 1366.5,658.167 1366.5,660.5C 1361.13,660.828 1355.79,660.495 1350.5,659.5C 1346.43,650.79 1342.26,642.124 1338,633.5C 1333.69,629.342 1328.53,627.676 1322.5,628.5C 1322.33,636.174 1322.5,643.841 1323,651.5C 1326,652.866 1329.16,653.533 1332.5,653.5C 1332.5,655.833 1332.5,658.167 1332.5,660.5C 1322.17,660.5 1311.83,660.5 1301.5,660.5C 1301.5,658.167 1301.5,655.833 1301.5,653.5C 1304.52,653.296 1307.52,652.963 1310.5,652.5C 1310.83,633.155 1310.5,613.822 1309.5,594.5C 1307.17,593.833 1304.83,593.167 1302.5,592.5C 1301.17,589.862 1301.5,587.529 1303.5,585.5 Z M 1322.5,594.5 C 1328.59,594.139 1334.59,594.639 1340.5,596C 1346.56,600.057 1348.39,605.557 1346,612.5C 1344.83,615 1343,616.833 1340.5,618C 1334.66,619.951 1328.66,620.784 1322.5,620.5C 1322.5,611.833 1322.5,603.167 1322.5,594.5 Z" />
            <path style="opacity:1" fill="currentColor"
                d="M 1373.5,585.5 C 1380.51,585.334 1387.51,585.5 1394.5,586C 1401.03,599.555 1407.69,613.055 1414.5,626.5C 1421.5,613.167 1428.5,599.833 1435.5,586.5C 1442.78,585.535 1450.11,585.201 1457.5,585.5C 1457.5,587.833 1457.5,590.167 1457.5,592.5C 1454.52,592.62 1451.69,593.287 1449,594.5C 1448.5,613.83 1448.33,633.164 1448.5,652.5C 1451.48,652.963 1454.48,653.296 1457.5,653.5C 1457.5,655.833 1457.5,658.167 1457.5,660.5C 1447.83,660.5 1438.17,660.5 1428.5,660.5C 1428.5,658.167 1428.5,655.833 1428.5,653.5C 1431.48,653.037 1434.48,652.704 1437.5,652.5C 1437.67,636.497 1437.5,620.497 1437,604.5C 1430.67,616.5 1424.33,628.5 1418,640.5C 1415,641.833 1412,641.833 1409,640.5C 1403,628.5 1397,616.5 1391,604.5C 1390.5,620.497 1390.33,636.497 1390.5,652.5C 1393.48,652.963 1396.48,653.296 1399.5,653.5C 1399.5,655.833 1399.5,658.167 1399.5,660.5C 1390.17,660.5 1380.83,660.5 1371.5,660.5C 1371.5,658.167 1371.5,655.833 1371.5,653.5C 1374.48,653.037 1377.48,652.704 1380.5,652.5C 1380.83,633.155 1380.5,613.822 1379.5,594.5C 1377.17,593.833 1374.83,593.167 1372.5,592.5C 1371.17,589.862 1371.5,587.529 1373.5,585.5 Z" />
            <path style="opacity:1" fill="currentColor"
                d="M 1490.5,585.5 C 1494.77,585.203 1498.93,585.536 1503,586.5C 1511.01,608.349 1518.51,630.349 1525.5,652.5C 1528.17,652.833 1530.83,653.167 1533.5,653.5C 1533.5,655.833 1533.5,658.167 1533.5,660.5C 1523.83,660.5 1514.17,660.5 1504.5,660.5C 1504.5,658.167 1504.5,655.833 1504.5,653.5C 1507.17,653.167 1509.83,652.833 1512.5,652.5C 1511.67,648.17 1510.33,644.004 1508.5,640C 1499.5,639.333 1490.5,639.333 1481.5,640C 1479.67,644.004 1478.33,648.17 1477.5,652.5C 1480.17,652.833 1482.83,653.167 1485.5,653.5C 1485.5,655.833 1485.5,658.167 1485.5,660.5C 1476.5,660.5 1467.5,660.5 1458.5,660.5C 1458.5,658.167 1458.5,655.833 1458.5,653.5C 1461.2,653.534 1463.7,652.867 1466,651.5C 1474.27,629.515 1482.44,607.515 1490.5,585.5 Z M 1495.5,598.5 C 1499.24,609.215 1502.91,620.048 1506.5,631C 1499.17,631.5 1491.84,631.666 1484.5,631.5C 1487.97,620.438 1491.63,609.438 1495.5,598.5 Z" />
            <path style="opacity:1" fill="currentColor"
                d="M 1602.5,585.5 C 1611.5,585.5 1620.5,585.5 1629.5,585.5C 1629.5,587.833 1629.5,590.167 1629.5,592.5C 1626.88,592.779 1624.38,593.446 1622,594.5C 1621.33,610.167 1621.33,625.833 1622,641.5C 1622.7,645.066 1624.53,647.9 1627.5,650C 1635.02,653.544 1642.35,653.21 1649.5,649C 1651.65,646.531 1653.15,643.698 1654,640.5C 1654.67,625.167 1654.67,609.833 1654,594.5C 1651.88,593.773 1649.71,593.106 1647.5,592.5C 1646.17,590.5 1646.17,588.5 1647.5,586.5C 1656.78,585.527 1666.11,585.193 1675.5,585.5C 1675.5,587.833 1675.5,590.167 1675.5,592.5C 1672.52,592.62 1669.69,593.287 1667,594.5C 1666.67,609.5 1666.33,624.5 1666,639.5C 1664.89,649.896 1659.39,656.729 1649.5,660C 1638.78,662.685 1628.45,661.685 1618.5,657C 1614.9,654.292 1612.4,650.792 1611,646.5C 1609.9,629.2 1609.07,611.867 1608.5,594.5C 1606.17,593.833 1603.83,593.167 1601.5,592.5C 1600.17,589.862 1600.5,587.529 1602.5,585.5 Z" />
            <path style="opacity:1" fill="currentColor"
                d="M 1683.5,585.5 C 1692.83,585.5 1702.17,585.5 1711.5,585.5C 1711.5,587.833 1711.5,590.167 1711.5,592.5C 1708.4,592.692 1705.4,593.358 1702.5,594.5C 1701.5,613.488 1701.17,632.488 1701.5,651.5C 1709.17,651.5 1716.83,651.5 1724.5,651.5C 1724.83,647.5 1725.17,643.5 1725.5,639.5C 1728.17,639.5 1730.83,639.5 1733.5,639.5C 1733.5,646.5 1733.5,653.5 1733.5,660.5C 1716.17,660.5 1698.83,660.5 1681.5,660.5C 1681.5,658.167 1681.5,655.833 1681.5,653.5C 1684.17,653.167 1686.83,652.833 1689.5,652.5C 1689.83,633.155 1689.5,613.822 1688.5,594.5C 1686.5,593.833 1684.5,593.167 1682.5,592.5C 1681.17,589.862 1681.5,587.529 1683.5,585.5 Z" />
            <path style="opacity:1" fill="currentColor"
                d="M 1730.5,585.5 C 1750.17,585.5 1769.83,585.5 1789.5,585.5C 1789.5,592.167 1789.5,598.833 1789.5,605.5C 1786.83,605.5 1784.17,605.5 1781.5,605.5C 1781.28,601.821 1780.94,598.154 1780.5,594.5C 1775.83,594.5 1771.17,594.5 1766.5,594.5C 1766.5,613.833 1766.5,633.167 1766.5,652.5C 1769.83,652.833 1773.17,653.167 1776.5,653.5C 1776.5,655.833 1776.5,658.167 1776.5,660.5C 1765.83,660.5 1755.17,660.5 1744.5,660.5C 1744.5,658.167 1744.5,655.833 1744.5,653.5C 1747.78,653.277 1750.95,652.61 1754,651.5C 1754.5,632.503 1754.67,613.503 1754.5,594.5C 1749.79,594.173 1745.12,594.507 1740.5,595.5C 1739.45,598.757 1738.78,602.09 1738.5,605.5C 1735.83,605.5 1733.17,605.5 1730.5,605.5C 1730.5,598.833 1730.5,592.167 1730.5,585.5 Z" />
            <path style="opacity:1" fill="currentColor"
                d="M 1795.5,585.5 C 1804.5,585.5 1813.5,585.5 1822.5,585.5C 1822.5,587.833 1822.5,590.167 1822.5,592.5C 1819.52,592.62 1816.69,593.287 1814,594.5C 1813.33,609.833 1813.33,625.167 1814,640.5C 1815.26,647.427 1819.43,651.26 1826.5,652C 1840.78,653.388 1847.61,646.888 1847,632.5C 1847.83,619.82 1847.67,607.154 1846.5,594.5C 1844.17,593.833 1841.83,593.167 1839.5,592.5C 1838.17,590.5 1838.17,588.5 1839.5,586.5C 1848.78,585.527 1858.11,585.193 1867.5,585.5C 1867.5,587.833 1867.5,590.167 1867.5,592.5C 1864.52,592.62 1861.69,593.287 1859,594.5C 1858.67,610.167 1858.33,625.833 1858,641.5C 1854.05,655.904 1844.55,662.571 1829.5,661.5C 1813.82,662.768 1804.66,655.768 1802,640.5C 1801.67,625.167 1801.33,609.833 1801,594.5C 1798.26,593.518 1795.43,592.852 1792.5,592.5C 1792.5,590.5 1792.5,588.5 1792.5,586.5C 1793.79,586.737 1794.79,586.404 1795.5,585.5 Z" />
            <path style="opacity:1" fill="currentColor"
                d="M 1874.5,585.5 C 1887.17,585.333 1899.84,585.5 1912.5,586C 1928.41,589.301 1933.91,598.801 1929,614.5C 1926.23,620.434 1921.73,624.434 1915.5,626.5C 1917.86,628.024 1919.69,630.024 1921,632.5C 1924.17,638.833 1927.33,645.167 1930.5,651.5C 1932.71,652.635 1935.04,653.301 1937.5,653.5C 1937.5,655.833 1937.5,658.167 1937.5,660.5C 1932.17,660.5 1926.83,660.5 1921.5,660.5C 1917.71,650.928 1913.38,641.595 1908.5,632.5C 1904.12,629.154 1899.12,627.82 1893.5,628.5C 1893.33,636.174 1893.5,643.841 1894,651.5C 1897.05,652.61 1900.22,653.277 1903.5,653.5C 1903.5,655.833 1903.5,658.167 1903.5,660.5C 1893.5,660.5 1883.5,660.5 1873.5,660.5C 1873.5,658.167 1873.5,655.833 1873.5,653.5C 1876.48,653.38 1879.31,652.713 1882,651.5C 1882.83,632.491 1882.67,613.491 1881.5,594.5C 1879.17,593.833 1876.83,593.167 1874.5,592.5C 1873.29,590.141 1873.29,587.808 1874.5,585.5 Z M 1893.5,594.5 C 1899.93,594.13 1906.26,594.63 1912.5,596C 1917.79,599.435 1919.63,604.268 1918,610.5C 1915.54,616.487 1911.04,619.654 1904.5,620C 1900.85,620.499 1897.18,620.665 1893.5,620.5C 1893.5,611.833 1893.5,603.167 1893.5,594.5 Z" />
            <path style="opacity:1" fill="currentColor"
                d="M 1944.5,585.5 C 1961.83,585.5 1979.17,585.5 1996.5,585.5C 1996.5,591.5 1996.5,597.5 1996.5,603.5C 1994.08,603.808 1991.74,603.474 1989.5,602.5C 1988.88,599.961 1988.22,597.461 1987.5,595C 1979.51,594.5 1971.51,594.334 1963.5,594.5C 1963.5,602.167 1963.5,609.833 1963.5,617.5C 1972.17,617.5 1980.83,617.5 1989.5,617.5C 1989.5,620.5 1989.5,623.5 1989.5,626.5C 1980.83,626.5 1972.17,626.5 1963.5,626.5C 1963.5,634.833 1963.5,643.167 1963.5,651.5C 1972.17,651.5 1980.83,651.5 1989.5,651.5C 1989.83,648.167 1990.17,644.833 1990.5,641.5C 1993.17,641.5 1995.83,641.5 1998.5,641.5C 1998.5,647.833 1998.5,654.167 1998.5,660.5C 1980.17,660.5 1961.83,660.5 1943.5,660.5C 1943.5,658.167 1943.5,655.833 1943.5,653.5C 1946.17,653.167 1948.83,652.833 1951.5,652.5C 1951.67,633.164 1951.5,613.83 1951,594.5C 1944.42,594.564 1942.26,591.564 1944.5,585.5 Z" />
            <path style="opacity:1" fill="currentColor"
                d="M 7.5,671.5 C 46.1667,671.5 84.8333,671.5 123.5,671.5C 126,718.835 138.166,763.502 160,805.5C 195.82,867.857 249.653,903.357 321.5,912C 382.29,916.935 441.123,908.435 498,886.5C 498.5,826.501 498.667,766.501 498.5,706.5C 470.503,702.381 442.503,698.215 414.5,694C 413.519,686.587 413.186,679.087 413.5,671.5C 503.167,671.5 592.833,671.5 682.5,671.5C 683.092,677.631 682.425,683.464 680.5,689C 653.522,695.328 626.522,701.495 599.5,707.5C 599.833,785.836 599.5,864.17 598.5,942.5C 516.697,977.961 431.197,996.628 342,998.5C 278.86,999.341 219.36,985.174 163.5,956C 100.747,919.071 56.9141,866.238 32,797.5C 17.4828,756.729 9.31612,714.729 7.5,671.5 Z" />
            <path style="opacity:1" fill="currentColor"
                d="M 843.5,671.5 C 953.915,671.004 1064.25,671.504 1174.5,673C 1195.3,688.124 1211.8,706.957 1224,729.5C 1255.5,790.491 1286.5,851.824 1317,913.5C 1338.5,919.751 1360,926.084 1381.5,932.5C 1382.5,951.155 1382.83,969.821 1382.5,988.5C 1334.5,988.667 1286.5,988.5 1238.5,988C 1204.2,914.575 1170.04,841.075 1136,767.5C 1125.98,746.515 1113.98,726.848 1100,708.5C 1078.73,687.286 1052.89,676.786 1022.5,677C 998.836,676.5 975.169,676.333 951.5,676.5C 951.5,755.167 951.5,833.833 951.5,912.5C 984.855,919.038 1018.19,925.704 1051.5,932.5C 1051.5,951.167 1051.5,969.833 1051.5,988.5C 953.833,988.5 856.167,988.5 758.5,988.5C 758.5,969.833 758.5,951.167 758.5,932.5C 786.799,926.008 815.133,919.675 843.5,913.5C 843.5,832.833 843.5,752.167 843.5,671.5 Z" />
            <path style="opacity:1" fill="currentColor"
                d="M 1532.5,671.5 C 1652.17,671.167 1771.84,671.5 1891.5,672.5C 1860.81,691.79 1827.47,704.29 1791.5,710C 1773.63,713.151 1755.63,715.151 1737.5,716C 1705.17,716.5 1672.84,716.667 1640.5,716.5C 1640.33,781.834 1640.5,847.168 1641,912.5C 1677.08,919.482 1713.25,926.149 1749.5,932.5C 1749.5,951.167 1749.5,969.833 1749.5,988.5C 1648.83,988.5 1548.17,988.5 1447.5,988.5C 1447.5,969.833 1447.5,951.167 1447.5,932.5C 1475.76,926.148 1503.93,919.482 1532,912.5C 1532.5,832.167 1532.67,751.834 1532.5,671.5 Z" />
        </g>
    </g>
</svg>