<?xml version="1.0" encoding="UTF-8"?>
<svg xmlns="http://www.w3.org/2000/svg" version="1.1" width="100px" height="6px"
	style="shape-rendering:geometricPrecision; text-rendering:geometricPrecision; image-rendering:optimizeQuality; fill-rule:evenodd; clip-rule:evenodd"
	xmlns:xlink="http://www.w3.org/1999/xlink">
	<metadata id="metadata8">
		<rdfRDF>
			<ccWork>
				<dcFormat>image/svg+xml</dcFormat>
				<dcType />
			</ccWork>
		</rdfRDF>
	</metadata>
	<defs id="defs6" />
	<sodipodiNamedview pagecolor="#ffffff" bordercolor="#666666" borderopacity="1"
		objecttolerance="10" gridtolerance="10" guidetolerance="10"
		id="namedview4" />
	<g id="g10">
		<g id="g12" transform="scale(0.085)">
			<path style="opacity:1" fill="currentColor"
				d="M 230.5,40.5 C 283.383,38.2352 335.049,45.0686 385.5,61C 401.64,66.5754 417.64,72.4088 433.5,78.5C 431.965,119.866 429.965,161.2 427.5,202.5C 411.833,202.5 396.167,202.5 380.5,202.5C 376.167,175.167 371.833,147.833 367.5,120.5C 337.848,111.07 307.515,104.903 276.5,102C 178.052,97.369 117.385,142.869 94.5,238.5C 66.1667,238.5 37.8333,238.5 9.5,238.5C 34.1345,117.522 107.801,51.522 230.5,40.5 Z" />
			<path style="opacity:1" fill="currentColor"
				d="M 676.5,47.5 C 712.502,47.3333 748.502,47.5 784.5,48C 819.265,48.2848 852.265,55.9515 883.5,71C 921.95,93.6894 942.783,127.523 946,172.5C 947.957,194.22 945.957,215.553 940,236.5C 913.06,238.486 885.893,239.153 858.5,238.5C 868.48,211.007 868.98,183.34 860,155.5C 851.351,135.517 836.851,121.684 816.5,114C 807.702,110.884 798.702,108.551 789.5,107C 754.526,105.563 719.526,105.063 684.5,105.5C 684.5,149.833 684.5,194.167 684.5,238.5C 658.833,238.5 633.167,238.5 607.5,238.5C 607.667,194.165 607.5,149.832 607,105.5C 586.606,100.777 566.106,96.444 545.5,92.5C 545.5,78.8333 545.5,65.1667 545.5,51.5C 589.336,50.4962 633.003,49.1629 676.5,47.5 Z" />
			<path style="opacity:1" fill="currentColor"
				d="M 705.5,253.5 C 706.833,253.5 708.167,253.5 709.5,253.5C 709.5,279.833 709.5,306.167 709.5,332.5C 716.413,331.765 719.413,334.765 718.5,341.5C 708.833,341.5 699.167,341.5 689.5,341.5C 689.192,339.076 689.526,336.743 690.5,334.5C 692.5,333.833 694.5,333.167 696.5,332.5C 697.833,309.5 697.833,286.5 696.5,263.5C 694.5,262.833 692.5,262.167 690.5,261.5C 689.526,259.257 689.192,256.924 689.5,254.5C 695.026,254.821 700.36,254.488 705.5,253.5 Z" />
			<path style="opacity:1" fill="currentColor"
				d="M 290.5,255.5 C 300.855,255.038 303.855,259.538 299.5,269C 289.961,272.66 285.794,269.493 287,259.5C 287.69,257.65 288.856,256.316 290.5,255.5 Z" />
			<path style="opacity:1" fill="currentColor"
				d="M 666.5,255.5 C 676.855,255.038 679.855,259.538 675.5,269C 664.375,272.542 660.542,268.708 664,257.5C 664.995,256.934 665.828,256.267 666.5,255.5 Z" />
			<path style="opacity:1" fill="currentColor"
				d="M 733.5,255.5 C 742.831,254.334 746.331,258.334 744,267.5C 740.133,271.086 735.967,271.42 731.5,268.5C 728.547,263.6 729.214,259.267 733.5,255.5 Z" />
			<path style="opacity:1" fill="currentColor"
				d="M 27.5,261.5 C 40.2607,260.304 52.594,261.97 64.5,266.5C 64.7498,272.751 64.7498,279.084 64.5,285.5C 61.7531,285.813 59.0865,285.48 56.5,284.5C 55.5102,280.895 54.8436,277.228 54.5,273.5C 24.7628,266.722 11.2628,278.722 14,309.5C 15.8977,323.899 24.0644,331.566 38.5,332.5C 43.3389,332.266 48.0055,331.266 52.5,329.5C 53.6636,323.528 53.8303,317.528 53,311.5C 49.9146,310.568 46.7479,309.901 43.5,309.5C 43.5,307.167 43.5,304.833 43.5,302.5C 53.5,302.5 63.5,302.5 73.5,302.5C 73.5,304.833 73.5,307.167 73.5,309.5C 70.5198,309.62 67.6865,310.287 65,311.5C 64.818,320.078 64.318,328.578 63.5,337C 49.0296,343.192 34.363,343.858 19.5,339C 8.78767,333.43 2.621,324.597 1,312.5C -1.83225,296.633 1.66775,282.467 11.5,270C 16.4828,266.344 21.8161,263.511 27.5,261.5 Z" />
			<path style="opacity:1" fill="currentColor"
				d="M 471.5,262.5 C 485.837,262.333 500.171,262.5 514.5,263C 529.491,267.476 534.658,277.309 530,292.5C 526.902,298.764 522.069,303.097 515.5,305.5C 518.19,307.356 520.356,309.689 522,312.5C 525.167,318.833 528.333,325.167 531.5,331.5C 533.611,332.949 535.944,333.949 538.5,334.5C 539.474,336.743 539.808,339.076 539.5,341.5C 533.794,341.829 528.128,341.495 522.5,340.5C 518.272,331.045 513.772,321.711 509,312.5C 504.304,308.447 498.804,306.781 492.5,307.5C 492.5,315.833 492.5,324.167 492.5,332.5C 495.91,332.782 499.243,333.449 502.5,334.5C 503.474,336.743 503.808,339.076 503.5,341.5C 492.833,341.5 482.167,341.5 471.5,341.5C 470.587,334.765 473.587,331.765 480.5,332.5C 480.833,312.156 480.5,291.822 479.5,271.5C 477.167,270.833 474.833,270.167 472.5,269.5C 471.526,267.257 471.192,264.924 471.5,262.5 Z M 492.5,271.5 C 498.925,271.13 505.258,271.63 511.5,273C 518.078,276.561 520.245,282.061 518,289.5C 516.181,294.336 512.681,297.169 507.5,298C 502.511,298.499 497.511,298.666 492.5,298.5C 492.5,289.5 492.5,280.5 492.5,271.5 Z" />
			<path style="opacity:1" fill="currentColor"
				d="M 90.5,280.5 C 92.924,280.192 95.2573,280.526 97.5,281.5C 98.0601,283.854 98.7267,286.187 99.5,288.5C 106.658,281.227 115.325,278.56 125.5,280.5C 125.5,286.833 125.5,293.167 125.5,299.5C 122.813,299.664 120.146,299.497 117.5,299C 116.718,296.26 116.218,293.426 116,290.5C 110.277,290.178 105.277,292.178 101,296.5C 100.167,308.514 100.334,320.514 101.5,332.5C 104.167,333.167 106.833,333.833 109.5,334.5C 110.474,336.743 110.808,339.076 110.5,341.5C 100.167,341.5 89.8333,341.5 79.5,341.5C 79.1924,339.076 79.5258,336.743 80.5,334.5C 82.8333,333.833 85.1667,333.167 87.5,332.5C 88.8333,318.5 88.8333,304.5 87.5,290.5C 84.9044,289.518 82.2377,288.851 79.5,288.5C 79.5,286.167 79.5,283.833 79.5,281.5C 83.3714,281.815 87.0381,281.482 90.5,280.5 Z" />
			<path style="opacity:1" fill="currentColor"
				d="M 148.5,280.5 C 176.379,278.554 188.212,291.554 184,319.5C 179.206,337.153 167.706,344.653 149.5,342C 138.818,340.242 132.318,334.075 130,323.5C 126.473,309.466 129.306,296.966 138.5,286C 141.767,283.87 145.1,282.037 148.5,280.5 Z M 151.5,289.5 C 161.898,287.34 168.398,291.34 171,301.5C 172.961,310.482 171.961,319.149 168,327.5C 160.333,335.5 152.667,335.5 145,327.5C 140.333,316.833 140.333,306.167 145,295.5C 147.063,293.266 149.229,291.266 151.5,289.5 Z" />
			<path style="opacity:1" fill="currentColor"
				d="M 200.5,280.5 C 204.167,280.5 207.833,280.5 211.5,280.5C 212.73,286.485 210.396,289.152 204.5,288.5C 206.555,301.386 209.555,314.053 213.5,326.5C 218.14,311.946 222.473,297.279 226.5,282.5C 230.717,281.088 235.05,280.421 239.5,280.5C 242.896,296.421 247.063,312.088 252,327.5C 255.484,314.899 258.65,302.232 261.5,289.5C 259.194,289.007 256.861,288.674 254.5,288.5C 254.5,286.167 254.5,283.833 254.5,281.5C 262.51,281.356 270.51,281.023 278.5,280.5C 278.808,282.924 278.474,285.257 277.5,287.5C 275.267,287.864 273.434,288.864 272,290.5C 267.333,307.167 262.667,323.833 258,340.5C 253.55,341.8 249.05,341.8 244.5,340.5C 240.478,326.07 236.311,311.737 232,297.5C 227.518,312.096 223.352,326.763 219.5,341.5C 214.833,341.5 210.167,341.5 205.5,341.5C 201.167,324.167 196.833,306.833 192.5,289.5C 190.194,289.007 187.861,288.674 185.5,288.5C 185.5,286.167 185.5,283.833 185.5,281.5C 190.695,281.821 195.695,281.487 200.5,280.5 Z" />
			<path style="opacity:1" fill="currentColor"
				d="M 293.5,280.5 C 295.833,280.5 298.167,280.5 300.5,280.5C 300.167,297.846 300.5,315.179 301.5,332.5C 303.709,333.106 305.876,333.773 308,334.5C 308.497,336.81 308.663,339.143 308.5,341.5C 299.167,341.5 289.833,341.5 280.5,341.5C 280.192,339.076 280.526,336.743 281.5,334.5C 283.5,333.833 285.5,333.167 287.5,332.5C 288.666,318.512 288.833,304.512 288,290.5C 285.618,289.446 283.118,288.779 280.5,288.5C 280.5,286.167 280.5,283.833 280.5,281.5C 285.032,281.818 289.366,281.485 293.5,280.5 Z" />
			<path style="opacity:1" fill="currentColor"
				d="M 324.5,280.5 C 327.167,280.5 329.833,280.5 332.5,280.5C 332.248,283.32 332.748,285.986 334,288.5C 341.851,281.329 351.018,278.829 361.5,281C 367.41,282.579 370.91,286.412 372,292.5C 372.167,305.846 372.667,319.179 373.5,332.5C 375.5,333.167 377.5,333.833 379.5,334.5C 380.474,336.743 380.808,339.076 380.5,341.5C 371.167,341.5 361.833,341.5 352.5,341.5C 352.192,339.076 352.526,336.743 353.5,334.5C 355.5,333.833 357.5,333.167 359.5,332.5C 360.666,320.848 360.833,309.181 360,297.5C 356.849,289.682 351.349,287.515 343.5,291C 340.582,292.709 337.748,294.542 335,296.5C 334.167,308.514 334.334,320.514 335.5,332.5C 337.5,333.167 339.5,333.833 341.5,334.5C 342.474,336.743 342.808,339.076 342.5,341.5C 333.167,341.5 323.833,341.5 314.5,341.5C 314.192,339.076 314.526,336.743 315.5,334.5C 317.5,333.833 319.5,333.167 321.5,332.5C 322.666,318.512 322.833,304.512 322,290.5C 319.618,289.446 317.118,288.779 314.5,288.5C 314.5,286.167 314.5,283.833 314.5,281.5C 318.042,281.813 321.375,281.479 324.5,280.5 Z" />
			<path style="opacity:1" fill="currentColor"
				d="M 402.5,280.5 C 410.625,280.014 418.625,280.681 426.5,282.5C 431.456,281.606 436.456,281.273 441.5,281.5C 441.5,284.167 441.5,286.833 441.5,289.5C 439.011,289.298 436.677,289.798 434.5,291C 440.363,311.052 432.697,321.886 411.5,323.5C 408.532,322.838 405.532,322.505 402.5,322.5C 402.037,325.482 401.704,328.482 401.5,331.5C 409.507,331.334 417.507,331.5 425.5,332C 441.391,334.632 446.225,343.465 440,358.5C 435.931,363.285 430.764,366.119 424.5,367C 415.838,368.927 407.171,368.927 398.5,367C 385.5,364.166 381.666,356.666 387,344.5C 388.873,342.291 391.04,340.458 393.5,339C 391.046,338.057 390.046,336.224 390.5,333.5C 391.447,328.766 393.113,324.266 395.5,320C 383.507,308.037 383.507,296.037 395.5,284C 397.925,282.787 400.259,281.621 402.5,280.5 Z M 408.5,288.5 C 423.904,288.96 428.404,296.293 422,310.5C 416.204,315.136 410.038,315.636 403.5,312C 401.951,310.786 400.785,309.286 400,307.5C 397.062,298.265 399.895,291.932 408.5,288.5 Z M 400.5,341.5 C 408.507,341.334 416.507,341.5 424.5,342C 430.689,344.766 432.022,349.1 428.5,355C 426.283,356.275 423.949,357.275 421.5,358C 414.418,358.884 407.418,358.551 400.5,357C 395.374,354.447 394.207,350.614 397,345.5C 398.376,344.295 399.542,342.962 400.5,341.5 Z" />
			<path style="opacity:1" fill="currentColor"
				d="M 562.5,280.5 C 586.684,278.351 597.351,289.351 594.5,313.5C 581.5,313.5 568.5,313.5 555.5,313.5C 556.176,328.342 563.843,334.508 578.5,332C 582.531,330.568 586.364,328.734 590,326.5C 591.876,328.422 593.376,330.589 594.5,333C 583.15,342.136 570.483,344.469 556.5,340C 548.419,335.575 543.919,328.742 543,319.5C 541.419,308.736 543.419,298.736 549,289.5C 552.882,285.429 557.382,282.429 562.5,280.5 Z M 565.5,289.5 C 576.454,288.452 582.12,293.452 582.5,304.5C 573.475,304.832 564.475,304.498 555.5,303.5C 556.909,297.309 560.242,292.642 565.5,289.5 Z" />
			<path style="opacity:1" fill="currentColor"
				d="M 618.5,280.5 C 627.652,279.954 636.652,280.788 645.5,283C 646.392,287.764 646.392,292.597 645.5,297.5C 642.833,297.5 640.167,297.5 637.5,297.5C 636.908,294.873 636.575,292.206 636.5,289.5C 630.616,287.698 624.949,288.198 619.5,291C 617.653,293.579 617.153,296.412 618,299.5C 627,303.833 636,308.167 645,312.5C 651.921,328.487 646.755,338.32 629.5,342C 621.377,342.848 613.377,342.182 605.5,340C 604.352,334.553 604.352,329.053 605.5,323.5C 608.167,323.5 610.833,323.5 613.5,323.5C 612.973,327.244 613.973,330.411 616.5,333C 621.589,333.826 626.589,333.492 631.5,332C 637.719,328.122 638.052,323.789 632.5,319C 624.949,316.559 617.616,313.559 610.5,310C 605.755,304.731 604.255,298.564 606,291.5C 608.505,285.822 612.671,282.155 618.5,280.5 Z" />
			<path style="opacity:1" fill="currentColor"
				d="M 669.5,280.5 C 671.833,280.5 674.167,280.5 676.5,280.5C 676.167,297.846 676.5,315.179 677.5,332.5C 679.833,333.167 682.167,333.833 684.5,334.5C 685.474,336.743 685.808,339.076 685.5,341.5C 675.833,341.5 666.167,341.5 656.5,341.5C 656.192,339.076 656.526,336.743 657.5,334.5C 659.5,333.833 661.5,333.167 663.5,332.5C 664.666,318.512 664.833,304.512 664,290.5C 661.618,289.446 659.118,288.779 656.5,288.5C 656.5,286.167 656.5,283.833 656.5,281.5C 661.032,281.818 665.366,281.485 669.5,280.5 Z" />
			<path style="opacity:1" fill="currentColor"
				d="M 737.5,280.5 C 739.5,280.5 741.5,280.5 743.5,280.5C 743.5,297.833 743.5,315.167 743.5,332.5C 750.413,331.765 753.413,334.765 752.5,341.5C 742.833,341.5 733.167,341.5 723.5,341.5C 723.192,339.076 723.526,336.743 724.5,334.5C 726.5,333.833 728.5,333.167 730.5,332.5C 731.666,318.512 731.833,304.512 731,290.5C 728.618,289.446 726.118,288.779 723.5,288.5C 723.5,286.167 723.5,283.833 723.5,281.5C 728.363,281.819 733.03,281.486 737.5,280.5 Z" />
			<path style="opacity:1" fill="currentColor"
				d="M 778.5,280.5 C 802.586,278.255 813.253,289.255 810.5,313.5C 797.5,313.5 784.5,313.5 771.5,313.5C 772.205,328.374 779.871,334.541 794.5,332C 798.531,330.568 802.364,328.734 806,326.5C 807.876,328.422 809.376,330.589 810.5,333C 799.15,342.136 786.483,344.469 772.5,340C 764.454,335.6 759.954,328.767 759,319.5C 755.516,301.132 762.016,288.132 778.5,280.5 Z M 781.5,289.5 C 792.454,288.452 798.12,293.452 798.5,304.5C 789.475,304.832 780.475,304.498 771.5,303.5C 772.905,297.321 776.238,292.654 781.5,289.5 Z" />
			<path style="opacity:1" fill="currentColor"
				d="M 828.5,280.5 C 831.167,280.5 833.833,280.5 836.5,280.5C 836.933,283.166 837.433,285.832 838,288.5C 846.273,281.523 855.773,279.023 866.5,281C 873.952,284.396 877.452,290.229 877,298.5C 877.168,309.848 877.668,321.181 878.5,332.5C 880.5,333.167 882.5,333.833 884.5,334.5C 885.474,336.743 885.808,339.076 885.5,341.5C 876.167,341.5 866.833,341.5 857.5,341.5C 857.337,339.143 857.503,336.81 858,334.5C 860,333.833 862,333.167 864,332.5C 864.667,320.5 864.667,308.5 864,296.5C 860.714,289.786 855.547,287.953 848.5,291C 845.241,292.211 842.408,294.044 840,296.5C 839.333,308.5 839.333,320.5 840,332.5C 845.43,332.992 847.596,335.992 846.5,341.5C 837.167,341.5 827.833,341.5 818.5,341.5C 818.192,339.076 818.526,336.743 819.5,334.5C 821.5,333.833 823.5,333.167 825.5,332.5C 826.666,318.512 826.833,304.512 826,290.5C 823.618,289.446 821.118,288.779 818.5,288.5C 818.5,286.167 818.5,283.833 818.5,281.5C 822.042,281.813 825.375,281.479 828.5,280.5 Z" />
			<path style="opacity:1" fill="currentColor"
				d="M 911.5,280.5 C 920.773,279.74 929.773,280.907 938.5,284C 938.952,289.406 938.952,294.906 938.5,300.5C 935.833,300.5 933.167,300.5 930.5,300.5C 930.002,297.513 929.502,294.513 929,291.5C 916.226,286.388 907.892,290.388 904,303.5C 902.644,311.529 903.644,319.195 907,326.5C 911.968,332.115 918.135,333.948 925.5,332C 929.446,330.694 933.112,328.861 936.5,326.5C 938.327,328.5 939.994,330.667 941.5,333C 931.515,341.329 920.182,343.996 907.5,341C 897.88,337.041 892.38,329.874 891,319.5C 888.781,307.233 891.614,296.4 899.5,287C 903.147,284.013 907.147,281.846 911.5,280.5 Z" />
			<path style="opacity:1" fill="currentColor"
				d="M 966.5,280.5 C 990.575,278.243 1001.24,289.243 998.5,313.5C 985.15,313.167 971.817,313.501 958.5,314.5C 960.35,328.201 968.017,334.034 981.5,332C 985.975,330.845 990.142,329.012 994,326.5C 995.697,328.699 997.197,331.032 998.5,333.5C 986.172,342.8 972.839,344.633 958.5,339C 952.305,334.79 948.472,328.956 947,321.5C 945.178,310.56 946.844,300.226 952,290.5C 955.977,285.774 960.811,282.441 966.5,280.5 Z M 969.5,289.5 C 980.429,288.425 986.096,293.425 986.5,304.5C 977.5,304.5 968.5,304.5 959.5,304.5C 960.122,297.562 963.456,292.562 969.5,289.5 Z" />
			<path style="opacity:1" fill="currentColor"
				d="M 8.5,383.5 C 36.8333,383.5 65.1667,383.5 93.5,383.5C 114.611,479.433 174.277,524.933 272.5,520C 301.934,517.308 330.6,511.141 358.5,501.5C 358.5,462.167 358.5,422.833 358.5,383.5C 382.833,383.5 407.167,383.5 431.5,383.5C 431.833,436.171 431.5,488.838 430.5,541.5C 357.732,573.795 281.732,586.295 202.5,579C 106.788,564.948 44.621,511.781 16,419.5C 12.5445,407.681 10.0445,395.681 8.5,383.5 Z" />
			<path style="opacity:1" fill="currentColor"
				d="M 607.5,383.5 C 633.167,383.5 658.833,383.5 684.5,383.5C 684.5,428.833 684.5,474.167 684.5,519.5C 708.606,523.988 732.606,528.988 756.5,534.5C 757.499,548.15 757.833,561.817 757.5,575.5C 686.833,575.5 616.167,575.5 545.5,575.5C 545.177,561.588 545.51,547.754 546.5,534C 566.806,529.306 587.14,524.806 607.5,520.5C 607.5,474.833 607.5,429.167 607.5,383.5 Z" />
			<path style="opacity:1" fill="currentColor"
				d="M 800.5,384.5 C 826.663,383.337 852.997,383.17 879.5,384C 903.139,428.777 926.139,473.943 948.5,519.5C 964.209,524.791 980.042,529.791 996,534.5C 996.5,548.163 996.667,561.829 996.5,575.5C 961.832,575.667 927.165,575.5 892.5,575C 865.478,517.122 838.311,459.288 811,401.5C 807.475,395.769 803.975,390.103 800.5,384.5 Z" />
		</g>
	</g>
</svg>